solid pietest01
facet normal 0.0 0.0 -1.0
  outer loop
    vertex 164.71709681639112 115.210642328862 0.0
    vertex 174.08123221130822 83.69885861682286 0.0
    vertex 116.37811821130822 83.69885861682286 0.0
  endloop
endfacet
facet normal 0.0 0.0 -1.0
  outer loop
    vertex 174.08123221130822 83.69885861682286 0.0
    vertex 164.71709681639112 115.210642328862 0.0
    vertex 166.17754548661628 112.84789647998913 0.0
  endloop
endfacet
facet normal 0.0 0.0 -1.0
  outer loop
    vertex 174.08123221130822 83.69885861682286 0.0
    vertex 166.17754548661628 112.84789647998913 0.0
    vertex 167.52259870327114 110.4176063514047 0.0
  endloop
endfacet
facet normal 0.0 0.0 -1.0
  outer loop
    vertex 174.08123221130822 83.69885861682286 0.0
    vertex 167.52259870327114 110.4176063514047 0.0
    vertex 168.74913970308137 107.9254034221646 0.0
  endloop
endfacet
facet normal 0.0 0.0 -1.0
  outer loop
    vertex 174.08123221130822 83.69885861682286 0.0
    vertex 168.74913970308137 107.9254034221646 0.0
    vertex 169.85432633980682 105.37706263594075 0.0
  endloop
endfacet
facet normal 0.0 0.0 -1.0
  outer loop
    vertex 174.08123221130822 83.69885861682286 0.0
    vertex 169.85432633980682 105.37706263594075 0.0
    vertex 170.83559767007512 102.77848901929603 0.0
  endloop
endfacet
facet normal 0.0 0.0 -1.0
  outer loop
    vertex 174.08123221130822 83.69885861682286 0.0
    vertex 170.83559767007512 102.77848901929603 0.0
    vertex 171.69067988761128 100.13570399853066 0.0
  endloop
endfacet
facet normal 0.0 0.0 -1.0
  outer loop
    vertex 174.08123221130822 83.69885861682286 0.0
    vertex 171.69067988761128 100.13570399853066 0.0
    vertex 172.41759159211148 97.45483144680628 0.0
  endloop
endfacet
facet normal 0.0 0.0 -1.0
  outer loop
    vertex 174.08123221130822 83.69885861682286 0.0
    vertex 172.41759159211148 97.45483144680628 0.0
    vertex 173.0146483805527 94.7420834938802 0.0
  endloop
endfacet
facet normal 0.0 0.0 -1.0
  outer loop
    vertex 174.08123221130822 83.69885861682286 0.0
    vertex 173.0146483805527 94.7420834938802 0.0
    vertex 173.48046675029892 92.00374613133053 0.0
  endloop
endfacet
facet normal 0.0 0.0 -1.0
  outer loop
    vertex 174.08123221130822 83.69885861682286 0.0
    vertex 173.48046675029892 92.00374613133053 0.0
    vertex 173.81396730495945 89.24616464662884 0.0
  endloop
endfacet
facet normal 0.0 0.0 -1.0
  outer loop
    vertex 174.08123221130822 83.69885861682286 0.0
    vertex 173.81396730495945 89.24616464662884 0.0
    vertex 174.0143772555711 86.4757289198118 0.0
  endloop
endfacet
facet normal 0.0 0.0 1.0
  outer loop
    vertex 174.08123221130822 83.69885861682286 7.380285999999999
    vertex 164.71709681639112 115.210642328862 7.380285999999999
    vertex 116.37811821130822 83.69885861682286 7.380285999999999
  endloop
endfacet
facet normal 0.0 0.0 1.0
  outer loop
    vertex 164.71709681639112 115.210642328862 7.380285999999999
    vertex 174.08123221130822 83.69885861682286 7.380285999999999
    vertex 166.17754548661628 112.84789647998913 7.380285999999999
  endloop
endfacet
facet normal 0.0 0.0 1.0
  outer loop
    vertex 166.17754548661628 112.84789647998913 7.380285999999999
    vertex 174.08123221130822 83.69885861682286 7.380285999999999
    vertex 167.52259870327114 110.4176063514047 7.380285999999999
  endloop
endfacet
facet normal 0.0 0.0 1.0
  outer loop
    vertex 167.52259870327114 110.4176063514047 7.380285999999999
    vertex 174.08123221130822 83.69885861682286 7.380285999999999
    vertex 168.74913970308137 107.9254034221646 7.380285999999999
  endloop
endfacet
facet normal 0.0 0.0 1.0
  outer loop
    vertex 168.74913970308137 107.9254034221646 7.380285999999999
    vertex 174.08123221130822 83.69885861682286 7.380285999999999
    vertex 169.85432633980682 105.37706263594075 7.380285999999999
  endloop
endfacet
facet normal 0.0 0.0 1.0
  outer loop
    vertex 169.85432633980682 105.37706263594075 7.380285999999999
    vertex 174.08123221130822 83.69885861682286 7.380285999999999
    vertex 170.83559767007512 102.77848901929603 7.380285999999999
  endloop
endfacet
facet normal 0.0 0.0 1.0
  outer loop
    vertex 170.83559767007512 102.77848901929603 7.380285999999999
    vertex 174.08123221130822 83.69885861682286 7.380285999999999
    vertex 171.69067988761128 100.13570399853066 7.380285999999999
  endloop
endfacet
facet normal 0.0 0.0 1.0
  outer loop
    vertex 171.69067988761128 100.13570399853066 7.380285999999999
    vertex 174.08123221130822 83.69885861682286 7.380285999999999
    vertex 172.41759159211148 97.45483144680628 7.380285999999999
  endloop
endfacet
facet normal 0.0 0.0 1.0
  outer loop
    vertex 172.41759159211148 97.45483144680628 7.380285999999999
    vertex 174.08123221130822 83.69885861682286 7.380285999999999
    vertex 173.0146483805527 94.7420834938802 7.380285999999999
  endloop
endfacet
facet normal 0.0 0.0 1.0
  outer loop
    vertex 173.0146483805527 94.7420834938802 7.380285999999999
    vertex 174.08123221130822 83.69885861682286 7.380285999999999
    vertex 173.48046675029892 92.00374613133053 7.380285999999999
  endloop
endfacet
facet normal 0.0 0.0 1.0
  outer loop
    vertex 173.48046675029892 92.00374613133053 7.380285999999999
    vertex 174.08123221130822 83.69885861682286 7.380285999999999
    vertex 173.81396730495945 89.24616464662884 7.380285999999999
  endloop
endfacet
facet normal 0.0 0.0 1.0
  outer loop
    vertex 173.81396730495945 89.24616464662884 7.380285999999999
    vertex 174.08123221130822 83.69885861682286 7.380285999999999
    vertex 174.0143772555711 86.4757289198118 7.380285999999999
  endloop
endfacet
facet normal 0.998841397784232 0.04812340462230299 1.2992477405601775e-19
  outer loop
    vertex 174.0143772555711 86.4757289198118 0.0
    vertex 174.08123221130822 83.69885861682286 4.571079999999999
    vertex 174.08123221130822 83.69885861682286 0.0
  endloop
endfacet
facet normal 0.9997103074851814 0.024068674826089625 2.597742716429684e-19
  outer loop
    vertex 174.08123221130822 83.69885861682286 4.571079999999999
    vertex 174.0143772555711 86.4757289198118 0.0
    vertex 174.08123221130822 83.69885861682286 7.380285999999999
  endloop
endfacet
facet normal 0.9997103074851814 0.024068674826089625 2.597742716429684e-19
  outer loop
    vertex 174.08123221130822 83.69885861682286 7.380285999999999
    vertex 174.0143772555711 86.4757289198118 0.0
    vertex 174.0143772555711 86.4757289198118 7.380285999999999
  endloop
endfacet
facet normal 0.0 -1.0 0.0
  outer loop
    vertex 174.08123221130822 83.69885861682286 7.380285999999999
    vertex 116.37811821130822 83.69885861682286 4.571079999999999
    vertex 174.08123221130822 83.69885861682286 4.571079999999999
  endloop
endfacet
facet normal 0.0 -1.0 0.0
  outer loop
    vertex 116.37811821130822 83.69885861682286 4.571079999999999
    vertex 174.08123221130822 83.69885861682286 7.380285999999999
    vertex 116.37811821130822 83.69885861682286 7.380285999999999
  endloop
endfacet
facet normal -0.5461019610144285 0.8377187166204392 3.138521506532908e-17
  outer loop
    vertex 116.37811821130822 83.69885861682286 4.571079999999999
    vertex 164.71709681639112 115.210642328862 0.0
    vertex 116.37811821130822 83.69885861682286 0.0
  endloop
endfacet
facet normal -0.5461019610144285 0.8377187166204392 3.138521506532908e-17
  outer loop
    vertex 164.71709681639112 115.210642328862 0.0
    vertex 116.37811821130822 83.69885861682286 4.571079999999999
    vertex 164.71709681639112 115.210642328862 7.380285999999999
  endloop
endfacet
facet normal -0.5461019610144285 0.8377187166204392 3.138521506532908e-17
  outer loop
    vertex 164.71709681639112 115.210642328862 7.380285999999999
    vertex 116.37811821130822 83.69885861682286 4.571079999999999
    vertex 116.37811821130822 83.69885861682286 7.380285999999999
  endloop
endfacet
facet normal 0.8506199863002605 0.5257809799779224 0.0
  outer loop
    vertex 164.71709681639112 115.210642328862 0.0
    vertex 166.17754548661628 112.84789647998913 7.380285999999999
    vertex 166.17754548661628 112.84789647998913 0.0
  endloop
endfacet
facet normal 0.8630284194941037 0.5051553693127584 0.0
  outer loop
    vertex 166.17754548661628 112.84789647998913 7.380285999999999
    vertex 164.71709681639112 115.210642328862 0.0
    vertex 164.71709681639112 115.210642328862 7.380285999999999
  endloop
endfacet
facet normal 0.8630284194941037 0.5051553693127584 0.0
  outer loop
    vertex 166.17754548661628 112.84789647998913 0.0
    vertex 167.52259870327114 110.4176063514047 7.380285999999999
    vertex 167.52259870327114 110.4176063514047 0.0
  endloop
endfacet
facet normal 0.8863383090895735 0.46303822935070443 0.0
  outer loop
    vertex 167.52259870327114 110.4176063514047 7.380285999999999
    vertex 166.17754548661628 112.84789647998913 0.0
    vertex 166.17754548661628 112.84789647998913 7.380285999999999
  endloop
endfacet
facet normal 0.8863383090895735 0.46303822935070443 0.0
  outer loop
    vertex 167.52259870327114 110.4176063514047 0.0
    vertex 168.74913970308137 107.9254034221646 7.380285999999999
    vertex 168.74913970308137 107.9254034221646 0.0
  endloop
endfacet
facet normal 0.9075943716273814 0.41984813515162683 0.0
  outer loop
    vertex 168.74913970308137 107.9254034221646 7.380285999999999
    vertex 167.52259870327114 110.4176063514047 0.0
    vertex 167.52259870327114 110.4176063514047 7.380285999999999
  endloop
endfacet
facet normal 0.9075943716273814 0.41984813515162683 0.0
  outer loop
    vertex 168.74913970308137 107.9254034221646 0.0
    vertex 169.85432633980682 105.37706263594075 7.380285999999999
    vertex 169.85432633980682 105.37706263594075 0.0
  endloop
endfacet
facet normal 0.9267473524652164 0.3756851669932046 0.0
  outer loop
    vertex 169.85432633980682 105.37706263594075 7.380285999999999
    vertex 168.74913970308137 107.9254034221646 0.0
    vertex 168.74913970308137 107.9254034221646 7.380285999999999
  endloop
endfacet
facet normal 0.9267473524652164 0.3756851669932046 0.0
  outer loop
    vertex 169.85432633980682 105.37706263594075 0.0
    vertex 170.83559767007512 102.77848901929603 7.380285999999999
    vertex 170.83559767007512 102.77848901929603 0.0
  endloop
endfacet
facet normal 0.9437528702310045 0.33065165950096287 0.0
  outer loop
    vertex 170.83559767007512 102.77848901929603 7.380285999999999
    vertex 169.85432633980682 105.37706263594075 0.0
    vertex 169.85432633980682 105.37706263594075 7.380285999999999
  endloop
endfacet
facet normal 0.9437528702310045 0.33065165950096287 0.0
  outer loop
    vertex 170.83559767007512 102.77848901929603 0.0
    vertex 171.69067988761128 100.13570399853066 7.380285999999999
    vertex 171.69067988761128 100.13570399853066 0.0
  endloop
endfacet
facet normal 0.9585715196636183 0.2848519645180305 0.0
  outer loop
    vertex 171.69067988761128 100.13570399853066 7.380285999999999
    vertex 170.83559767007512 102.77848901929603 0.0
    vertex 170.83559767007512 102.77848901929603 7.380285999999999
  endloop
endfacet
facet normal 0.9585715196636183 0.2848519645180305 0.0
  outer loop
    vertex 171.69067988761128 100.13570399853066 0.0
    vertex 172.41759159211148 97.45483144680628 7.380285999999999
    vertex 172.41759159211148 97.45483144680628 0.0
  endloop
endfacet
facet normal 0.9711689629229237 0.23839220930058305 0.0
  outer loop
    vertex 172.41759159211148 97.45483144680628 7.380285999999999
    vertex 171.69067988761128 100.13570399853066 0.0
    vertex 171.69067988761128 100.13570399853066 7.380285999999999
  endloop
endfacet
facet normal 0.9711689629229237 0.23839220930058305 0.0
  outer loop
    vertex 172.41759159211148 97.45483144680628 0.0
    vertex 173.0146483805527 94.7420834938802 7.380285999999999
    vertex 173.0146483805527 94.7420834938802 0.0
  endloop
endfacet
facet normal 0.9815160091575723 0.19138005059930424 0.0
  outer loop
    vertex 173.0146483805527 94.7420834938802 7.380285999999999
    vertex 172.41759159211148 97.45483144680628 0.0
    vertex 172.41759159211148 97.45483144680628 7.380285999999999
  endloop
endfacet
facet normal 0.9815160091575723 0.19138005059930424 0.0
  outer loop
    vertex 173.0146483805527 94.7420834938802 0.0
    vertex 173.48046675029892 92.00374613133053 7.380285999999999
    vertex 173.48046675029892 92.00374613133053 0.0
  endloop
endfacet
facet normal 0.989588682146178 0.14392442519666562 0.0
  outer loop
    vertex 173.48046675029892 92.00374613133053 7.380285999999999
    vertex 173.0146483805527 94.7420834938802 0.0
    vertex 173.0146483805527 94.7420834938802 7.380285999999999
  endloop
endfacet
facet normal 0.989588682146178 0.14392442519666562 0.0
  outer loop
    vertex 173.48046675029892 92.00374613133053 0.0
    vertex 173.81396730495945 89.24616464662884 7.380285999999999
    vertex 173.81396730495945 89.24616464662884 0.0
  endloop
endfacet
facet normal 0.9953682758551161 0.09613529747815461 0.0
  outer loop
    vertex 173.81396730495945 89.24616464662884 7.380285999999999
    vertex 173.48046675029892 92.00374613133053 0.0
    vertex 173.48046675029892 92.00374613133053 7.380285999999999
  endloop
endfacet
facet normal 0.9953682758551161 0.09613529747815461 0.0
  outer loop
    vertex 173.81396730495945 89.24616464662884 0.0
    vertex 174.0143772555711 86.4757289198118 7.380285999999999
    vertex 174.0143772555711 86.4757289198118 0.0
  endloop
endfacet
facet normal 0.998841397784232 0.04812340462230299 1.2992477405601775e-19
  outer loop
    vertex 174.0143772555711 86.4757289198118 7.380285999999999
    vertex 173.81396730495945 89.24616464662884 0.0
    vertex 173.81396730495945 89.24616464662884 7.380285999999999
  endloop
endfacet
facet normal 0.0 0.0 -1.0
  outer loop
    vertex 174.08123221130822 83.69885861682286 0.0
    vertex 180.40080724982766 27.056368119635845 0.0
    vertex 116.37811821130822 83.69885861682286 0.0
  endloop
endfacet
facet normal 0.0 0.0 -1.0
  outer loop
    vertex 180.40080724982766 27.056368119635845 0.0
    vertex 174.08123221130822 83.69885861682286 0.0
    vertex 201.86072721130822 83.69885861682286 0.0
  endloop
endfacet
facet normal 0.0 0.0 -1.0
  outer loop
    vertex 180.40080724982766 27.056368119635845 0.0
    vertex 201.86072721130822 83.69885861682286 0.0
    vertex 183.70104312552346 31.02153690774376 0.0
  endloop
endfacet
facet normal 0.0 0.0 -1.0
  outer loop
    vertex 183.70104312552346 31.02153690774376 0.0
    vertex 201.86072721130822 83.69885861682286 0.0
    vertex 186.756079515396 35.178563851362114 0.0
  endloop
endfacet
facet normal 0.0 0.0 -1.0
  outer loop
    vertex 186.756079515396 35.178563851362114 0.0
    vertex 201.86072721130822 83.69885861682286 0.0
    vertex 189.55478955065706 39.51230847834972 0.0
  endloop
endfacet
facet normal 0.0 0.0 -1.0
  outer loop
    vertex 189.55478955065706 39.51230847834972 0.0
    vertex 201.86072721130822 83.69885861682286 0.0
    vertex 192.08697993886585 44.00698668610585 0.0
  endloop
endfacet
facet normal 0.0 0.0 -1.0
  outer loop
    vertex 192.08697993886585 44.00698668610585 0.0
    vertex 201.86072721130822 83.69885861682286 0.0
    vertex 194.34342808932254 48.64622822947423 0.0
  endloop
endfacet
facet normal 0.0 0.0 -1.0
  outer loop
    vertex 194.34342808932254 48.64622822947423 0.0
    vertex 201.86072721130822 83.69885861682286 0.0
    vertex 196.31591570303056 53.413136343459996 0.0
  endloop
endfacet
facet normal 0.0 0.0 -1.0
  outer loop
    vertex 196.31591570303056 53.413136343459996 0.0
    vertex 201.86072721130822 83.69885861682286 0.0
    vertex 197.99725870488774 58.29034928360526 0.0
  endloop
endfacet
facet normal 0.0 0.0 -1.0
  outer loop
    vertex 197.99725870488774 58.29034928360526 0.0
    vertex 201.86072721130822 83.69885861682286 0.0
    vertex 199.38133340909062 63.260103559884975 0.0
  endloop
endfacet
facet normal 0.0 0.0 -1.0
  outer loop
    vertex 199.38133340909062 63.260103559884975 0.0
    vertex 201.86072721130822 83.69885861682286 0.0
    vertex 200.46309882245234 68.30429863381592 0.0
  endloop
endfacet
facet normal 0.0 0.0 -1.0
  outer loop
    vertex 200.46309882245234 68.30429863381592 0.0
    vertex 201.86072721130822 83.69885861682286 0.0
    vertex 201.2386150044032 73.40456284314341 0.0
  endloop
endfacet
facet normal 0.0 0.0 -1.0
  outer loop
    vertex 201.2386150044032 73.40456284314341 0.0
    vertex 201.86072721130822 83.69885861682286 0.0
    vertex 201.70505741680407 78.5423203139986 0.0
  endloop
endfacet
facet normal -0.0 -0.0 1.0
  outer loop
    vertex 180.40080724982766 27.056368119635845 4.571079999999999
    vertex 174.08123221130822 83.69885861682286 4.571079999999999
    vertex 116.37811821130822 83.69885861682286 4.571079999999999
  endloop
endfacet
facet normal -0.0 -0.0 1.0
  outer loop
    vertex 174.08123221130822 83.69885861682286 4.571079999999999
    vertex 180.40080724982766 27.056368119635845 4.571079999999999
    vertex 201.86072721130822 83.69885861682286 4.571079999999999
  endloop
endfacet
facet normal -0.0 -0.0 1.0
  outer loop
    vertex 201.86072721130822 83.69885861682286 4.571079999999999
    vertex 180.40080724982766 27.056368119635845 4.571079999999999
    vertex 183.70104312552346 31.02153690774376 4.571079999999999
  endloop
endfacet
facet normal -0.0 -0.0 1.0
  outer loop
    vertex 201.86072721130822 83.69885861682286 4.571079999999999
    vertex 183.70104312552346 31.02153690774376 4.571079999999999
    vertex 186.756079515396 35.178563851362114 4.571079999999999
  endloop
endfacet
facet normal -0.0 -0.0 1.0
  outer loop
    vertex 201.86072721130822 83.69885861682286 4.571079999999999
    vertex 186.756079515396 35.178563851362114 4.571079999999999
    vertex 189.55478955065706 39.51230847834972 4.571079999999999
  endloop
endfacet
facet normal -0.0 -0.0 1.0
  outer loop
    vertex 201.86072721130822 83.69885861682286 4.571079999999999
    vertex 189.55478955065706 39.51230847834972 4.571079999999999
    vertex 192.08697993886585 44.00698668610585 4.571079999999999
  endloop
endfacet
facet normal -0.0 -0.0 1.0
  outer loop
    vertex 201.86072721130822 83.69885861682286 4.571079999999999
    vertex 192.08697993886585 44.00698668610585 4.571079999999999
    vertex 194.34342808932254 48.64622822947423 4.571079999999999
  endloop
endfacet
facet normal -0.0 -0.0 1.0
  outer loop
    vertex 201.86072721130822 83.69885861682286 4.571079999999999
    vertex 194.34342808932254 48.64622822947423 4.571079999999999
    vertex 196.31591570303056 53.413136343459996 4.571079999999999
  endloop
endfacet
facet normal -0.0 -0.0 1.0
  outer loop
    vertex 201.86072721130822 83.69885861682286 4.571079999999999
    vertex 196.31591570303056 53.413136343459996 4.571079999999999
    vertex 197.99725870488774 58.29034928360526 4.571079999999999
  endloop
endfacet
facet normal -0.0 -0.0 1.0
  outer loop
    vertex 201.86072721130822 83.69885861682286 4.571079999999999
    vertex 197.99725870488774 58.29034928360526 4.571079999999999
    vertex 199.38133340909062 63.260103559884975 4.571079999999999
  endloop
endfacet
facet normal -0.0 -0.0 1.0
  outer loop
    vertex 201.86072721130822 83.69885861682286 4.571079999999999
    vertex 199.38133340909062 63.260103559884975 4.571079999999999
    vertex 200.46309882245234 68.30429863381592 4.571079999999999
  endloop
endfacet
facet normal -0.0 -0.0 1.0
  outer loop
    vertex 201.86072721130822 83.69885861682286 4.571079999999999
    vertex 200.46309882245234 68.30429863381592 4.571079999999999
    vertex 201.2386150044032 73.40456284314341 4.571079999999999
  endloop
endfacet
facet normal -0.0 -0.0 1.0
  outer loop
    vertex 201.86072721130822 83.69885861682286 4.571079999999999
    vertex 201.2386150044032 73.40456284314341 4.571079999999999
    vertex 201.70505741680407 78.5423203139986 4.571079999999999
  endloop
endfacet
facet normal 0.9995446288778442 -0.030175070529374584 0.0
  outer loop
    vertex 201.86072721130822 83.69885861682286 0.0
    vertex 201.70505741680407 78.5423203139986 4.571079999999999
    vertex 201.70505741680407 78.5423203139986 0.0
  endloop
endfacet
facet normal 0.9981789302370948 -0.06032265934728842 0.0
  outer loop
    vertex 201.70505741680407 78.5423203139986 4.571079999999999
    vertex 201.86072721130822 83.69885861682286 0.0
    vertex 201.86072721130822 83.69885861682286 4.571079999999999
  endloop
endfacet
facet normal 0.9981789302370948 -0.06032265934728842 0.0
  outer loop
    vertex 201.70505741680407 78.5423203139986 0.0
    vertex 201.2386150044032 73.40456284314341 4.571079999999999
    vertex 201.2386150044032 73.40456284314341 0.0
  endloop
endfacet
facet normal 0.9927223535385427 -0.12042561515266002 0.0
  outer loop
    vertex 201.2386150044032 73.40456284314341 4.571079999999999
    vertex 201.70505741680407 78.5423203139986 0.0
    vertex 201.70505741680407 78.5423203139986 4.571079999999999
  endloop
endfacet
facet normal 0.9927223535385427 -0.12042561515266002 0.0
  outer loop
    vertex 201.2386150044032 73.40456284314341 0.0
    vertex 200.46309882245234 68.30429863381592 4.571079999999999
    vertex 200.46309882245234 68.30429863381592 0.0
  endloop
endfacet
facet normal 0.9836501435180125 -0.18008996406516736 0.0
  outer loop
    vertex 200.46309882245234 68.30429863381592 4.571079999999999
    vertex 201.2386150044032 73.40456284314341 0.0
    vertex 201.2386150044032 73.40456284314341 4.571079999999999
  endloop
endfacet
facet normal 0.9836501435180125 -0.18008996406516736 0.0
  outer loop
    vertex 200.46309882245234 68.30429863381592 0.0
    vertex 199.38133340909062 63.260103559884975 4.571079999999999
    vertex 199.38133340909062 63.260103559884975 0.0
  endloop
endfacet
facet normal 0.9709953424302058 -0.23909840020135484 0.0
  outer loop
    vertex 199.38133340909062 63.260103559884975 4.571079999999999
    vertex 200.46309882245234 68.30429863381592 0.0
    vertex 200.46309882245234 68.30429863381592 4.571079999999999
  endloop
endfacet
facet normal 0.9709953424302058 -0.23909840020135484 0.0
  outer loop
    vertex 199.38133340909062 63.260103559884975 0.0
    vertex 197.99725870488774 58.29034928360526 4.571079999999999
    vertex 197.99725870488774 58.29034928360526 0.0
  endloop
endfacet
facet normal 0.9548040408263567 -0.2972360066036095 0.0
  outer loop
    vertex 197.99725870488774 58.29034928360526 4.571079999999999
    vertex 199.38133340909062 63.260103559884975 0.0
    vertex 199.38133340909062 63.260103559884975 4.571079999999999
  endloop
endfacet
facet normal 0.9548040408263567 -0.2972360066036095 0.0
  outer loop
    vertex 197.99725870488774 58.29034928360526 0.0
    vertex 196.31591570303056 53.413136343459996 4.571079999999999
    vertex 196.31591570303056 53.413136343459996 0.0
  endloop
endfacet
facet normal 0.9351352096860113 -0.35429103799771666 0.0
  outer loop
    vertex 196.31591570303056 53.413136343459996 4.571079999999999
    vertex 197.99725870488774 58.29034928360526 0.0
    vertex 197.99725870488774 58.29034928360526 4.571079999999999
  endloop
endfacet
facet normal 0.9351352096860113 -0.35429103799771666 0.0
  outer loop
    vertex 196.31591570303056 53.413136343459996 0.0
    vertex 194.34342808932254 48.64622822947423 4.571079999999999
    vertex 194.34342808932254 48.64622822947423 0.0
  endloop
endfacet
facet normal 0.9120604856364928 -0.41005569199869035 0.0
  outer loop
    vertex 194.34342808932254 48.64622822947423 4.571079999999999
    vertex 196.31591570303056 53.413136343459996 0.0
    vertex 196.31591570303056 53.413136343459996 4.571079999999999
  endloop
endfacet
facet normal 0.9120604856364928 -0.41005569199869035 0.0
  outer loop
    vertex 194.34342808932254 48.64622822947423 0.0
    vertex 192.08697993886585 44.00698668610585 4.571079999999999
    vertex 192.08697993886585 44.00698668610585 0.0
  endloop
endfacet
facet normal 0.8856639100423063 -0.4643268659560564 0.0
  outer loop
    vertex 192.08697993886585 44.00698668610585 4.571079999999999
    vertex 194.34342808932254 48.64622822947423 0.0
    vertex 194.34342808932254 48.64622822947423 4.571079999999999
  endloop
endfacet
facet normal 0.8856639100423063 -0.4643268659560564 0.0
  outer loop
    vertex 192.08697993886585 44.00698668610585 0.0
    vertex 189.55478955065706 39.51230847834972 4.571079999999999
    vertex 189.55478955065706 39.51230847834972 0.0
  endloop
endfacet
facet normal 0.8560416229147707 -0.5169068966820286 0.0
  outer loop
    vertex 189.55478955065706 39.51230847834972 4.571079999999999
    vertex 192.08697993886585 44.00698668610585 0.0
    vertex 192.08697993886585 44.00698668610585 4.571079999999999
  endloop
endfacet
facet normal 0.8560416229147707 -0.5169068966820286 0.0
  outer loop
    vertex 189.55478955065706 39.51230847834972 0.0
    vertex 186.756079515396 35.178563851362114 4.571079999999999
    vertex 186.756079515396 35.178563851362114 0.0
  endloop
endfacet
facet normal 0.8233015127566804 -0.5676042803684284 0.0
  outer loop
    vertex 186.756079515396 35.178563851362114 4.571079999999999
    vertex 189.55478955065706 39.51230847834972 0.0
    vertex 189.55478955065706 39.51230847834972 4.571079999999999
  endloop
endfacet
facet normal 0.8233015127566804 -0.5676042803684284 0.0
  outer loop
    vertex 186.756079515396 35.178563851362114 0.0
    vertex 183.70104312552346 31.02153690774376 4.571079999999999
    vertex 183.70104312552346 31.02153690774376 0.0
  endloop
endfacet
facet normal 0.7875628236173192 -0.6162343700702803 0.0
  outer loop
    vertex 183.70104312552346 31.02153690774376 4.571079999999999
    vertex 186.756079515396 35.178563851362114 0.0
    vertex 186.756079515396 35.178563851362114 4.571079999999999
  endloop
endfacet
facet normal 0.7875628236173192 -0.6162343700702803 0.0
  outer loop
    vertex 183.70104312552346 31.02153690774376 0.0
    vertex 180.40080724982766 27.056368119635845 4.571079999999999
    vertex 180.40080724982766 27.056368119635845 0.0
  endloop
endfacet
facet normal 0.7686092746710673 -0.6397185184826338 0.0
  outer loop
    vertex 180.40080724982766 27.056368119635845 4.571079999999999
    vertex 183.70104312552346 31.02153690774376 0.0
    vertex 183.70104312552346 31.02153690774376 4.571079999999999
  endloop
endfacet
facet normal -0.6626200482157374 -0.7489557207890023 0.0
  outer loop
    vertex 180.40080724982766 27.056368119635845 4.571079999999999
    vertex 116.37811821130822 83.69885861682286 0.0
    vertex 180.40080724982766 27.056368119635845 0.0
  endloop
endfacet
facet normal -0.6626200482157374 -0.7489557207890023 0.0
  outer loop
    vertex 116.37811821130822 83.69885861682286 0.0
    vertex 180.40080724982766 27.056368119635845 4.571079999999999
    vertex 116.37811821130822 83.69885861682286 4.571079999999999
  endloop
endfacet
facet normal 0.0 -1.0 0.0
  outer loop
    vertex 174.08123221130822 83.69885861682286 4.571079999999999
    vertex 116.37811821130822 83.69885861682286 0.0
    vertex 174.08123221130822 83.69885861682286 0.0
  endloop
endfacet
facet normal 0.0 -1.0 0.0
  outer loop
    vertex 116.37811821130822 83.69885861682286 0.0
    vertex 174.08123221130822 83.69885861682286 4.571079999999999
    vertex 116.37811821130822 83.69885861682286 4.571079999999999
  endloop
endfacet
facet normal -0.0 1.0 -0.0
  outer loop
    vertex 174.08123221130822 83.69885861682286 4.571079999999999
    vertex 201.86072721130822 83.69885861682286 0.0
    vertex 174.08123221130822 83.69885861682286 0.0
  endloop
endfacet
facet normal -0.0 1.0 -0.0
  outer loop
    vertex 201.86072721130822 83.69885861682286 0.0
    vertex 174.08123221130822 83.69885861682286 4.571079999999999
    vertex 201.86072721130822 83.69885861682286 4.571079999999999
  endloop
endfacet
endsolid pietest01
